<?xml version="1.0" encoding="UTF-8"?>
<svg version="1.1" xmlns="http://www.w3.org/2000/svg" width="461" height="461">
<path d="M0 0 C1.08838165 0.00021149 2.17676331 0.00042297 3.29812622 0.00064087 C19.25646186 0.03163534 34.55267015 0.58003588 50.125 4.375 C51.27162109 4.63192627 51.27162109 4.63192627 52.44140625 4.89404297 C72.45390325 9.42295805 92.1390966 17.57876667 110.125 27.375 C110.78113281 27.72385254 111.43726563 28.07270508 112.11328125 28.43212891 C125.82253829 35.72909722 138.18129669 44.44268041 150.125 54.375 C150.92139893 55.02807129 150.92139893 55.02807129 151.73388672 55.69433594 C181.73231192 80.35312607 202.78110191 113.58653302 217.125 149.375 C217.61444092 150.57576172 217.61444092 150.57576172 218.11376953 151.80078125 C223.18629345 164.34299314 226.66601914 177.07246821 229.125 190.375 C229.31191406 191.32310547 229.49882812 192.27121094 229.69140625 193.24804688 C231.60262184 204.35357459 231.49718086 215.51797579 231.49560547 226.75683594 C231.49994741 230.20819647 231.53627797 233.6582421 231.57421875 237.109375 C231.79546436 281.14452827 217.30704645 326.74234378 191.125 362.375 C190.67656738 362.9942334 190.22813477 363.6134668 189.76611328 364.25146484 C184.22354372 371.89191435 178.57094168 379.30422181 172.12890625 386.21875 C170.26717233 388.22201924 168.5076884 390.28073297 166.75 392.375 C136.11181659 427.26074974 86.20684956 451.45366263 41.125 459.375 C40.18849609 459.55756348 39.25199219 459.74012695 38.28710938 459.92822266 C27.16686657 461.84474087 15.99760298 461.74718305 4.74316406 461.74560547 C1.29180353 461.74994741 -2.1582421 461.78627797 -5.609375 461.82421875 C-58.12618789 462.08902872 -108.87524254 440.92518416 -148.875 407.375 C-149.67284912 406.71830322 -149.67284912 406.71830322 -150.48681641 406.04833984 C-163.31426668 395.48098117 -173.86331429 383.59941788 -183.875 370.375 C-184.30312988 369.81441895 -184.73125977 369.25383789 -185.17236328 368.67626953 C-206.58914749 340.45291981 -221.82452143 305.21981522 -227.875 270.375 C-228.05901367 269.33093994 -228.24302734 268.28687988 -228.43261719 267.21118164 C-230.24795376 255.52232331 -230.27161442 243.8676313 -230.25 232.0625 C-230.24978851 230.99940613 -230.24957703 229.93631226 -230.24935913 228.84100342 C-230.21729316 212.69707704 -229.56969741 197.15867447 -225.875 181.375 C-225.69308105 180.56691895 -225.51116211 179.75883789 -225.32373047 178.92626953 C-219.02362871 151.71591045 -206.78106562 124.28398207 -190.875 101.375 C-190.35711914 100.62557129 -189.83923828 99.87614258 -189.30566406 99.10400391 C-181.7544491 88.28412233 -173.63933213 78.32569003 -164.38818359 68.91894531 C-163.07080656 67.57478714 -161.77734001 66.20727661 -160.48828125 64.8359375 C-145.51018999 49.16569785 -126.07307053 36.26843147 -106.875 26.375 C-106.10236816 25.97571289 -105.32973633 25.57642578 -104.53369141 25.16503906 C-83.75103475 14.56054467 -61.912987 6.37846701 -38.875 2.375 C-37.83746582 2.19098633 -36.79993164 2.00697266 -35.73095703 1.81738281 C-23.85537263 -0.03503005 -11.99403496 -0.02143068 0 0 Z " fill="#ED4925" transform="translate(229.875,-0.375)"/>
<path d="M0 0 C3.88327438 1.89813819 6.79612275 4.99863964 9.91796875 7.9375 C10.63339844 8.60007812 11.34882813 9.26265625 12.0859375 9.9453125 C21.64456831 19.1148309 30.18311725 30.11155781 36.04296875 42 C36.54054687 43.00160156 37.038125 44.00320312 37.55078125 45.03515625 C38.91796875 47.9375 38.91796875 47.9375 39.78515625 50.43359375 C43.42492001 58.47872675 49.29831967 60.99212406 57.04296875 64.4375 C67.72772607 69.30313096 78.09436781 74.37280595 87.73046875 81.125 C88.407146 81.59711914 89.08382324 82.06923828 89.78100586 82.55566406 C125.88927219 107.98033752 125.88927219 107.98033752 128.91796875 123.9375 C129.09070313 125.03320312 129.2634375 126.12890625 129.44140625 127.2578125 C130.41588315 133.55791207 130.41588315 133.55791207 133.66015625 138.859375 C136.32747193 140.72372714 139.10059226 142.30690637 141.91796875 143.9375 C145.13625973 146.05948178 148.30577166 148.25103547 151.48046875 150.4375 C152.27130859 150.97181641 153.06214844 151.50613281 153.87695312 152.05664062 C158.64340163 155.29087536 163.23890619 158.67682492 167.76342773 162.24121094 C171.02930124 164.81246183 174.34523781 167.31540205 177.66796875 169.8125 C178.34537109 170.32280762 179.02277344 170.83311523 179.72070312 171.35888672 C185.23969034 175.49038299 190.89045767 179.38771717 196.63671875 183.1953125 C197.38953125 183.77023438 198.14234375 184.34515625 198.91796875 184.9375 C198.91796875 185.5975 198.91796875 186.2575 198.91796875 186.9375 C197.97695313 186.98648438 197.0359375 187.03546875 196.06640625 187.0859375 C194.19855469 187.19808594 194.19855469 187.19808594 192.29296875 187.3125 C191.06320312 187.38210937 189.8334375 187.45171875 188.56640625 187.5234375 C185.0814302 187.9189487 182.18747274 188.70011849 178.91796875 189.9375 C179.17729078 197.06885577 181.51181662 201.38048724 185.91796875 206.9375 C186.49804688 207.43636719 187.078125 207.93523437 187.67578125 208.44921875 C188.91796875 209.9375 188.91796875 209.9375 188.8359375 211.93359375 C187.69310789 214.42836648 186.45639497 215.4100527 184.23046875 217 C183.56660156 217.48597656 182.90273438 217.97195312 182.21875 218.47265625 C172.79908092 224.46989887 162.74916602 224.50269859 151.97900391 222.35009766 C140.62120184 219.57006143 129.70862437 215.58851016 118.87744141 211.22802734 C108.1958216 206.97650196 98.2812521 206.66146883 86.91796875 206.9375 C86.91796875 207.5975 86.91796875 208.2575 86.91796875 208.9375 C88.20171387 209.20320801 89.48545898 209.46891602 90.80810547 209.74267578 C95.87836658 210.87164024 100.75325032 212.40799144 105.67578125 214.0546875 C106.58190155 214.35311554 107.48802185 214.65154358 108.42160034 214.95901489 C111.2967643 215.90607502 114.17007438 216.85857904 117.04296875 217.8125 C139.5581742 225.69185136 139.5581742 225.69185136 162.91796875 229.9375 C163.57796875 230.2675 164.23796875 230.5975 164.91796875 230.9375 C164.91796875 231.9275 164.91796875 232.9175 164.91796875 233.9375 C162.72265625 235.91015625 162.72265625 235.91015625 159.79296875 238 C158.84164063 238.69222656 157.8903125 239.38445312 156.91015625 240.09765625 C146.65353405 246.40427382 132.27828733 245.71074843 120.87695312 243.06152344 C112.76931266 241.01510327 104.79410952 238.48698299 96.8527832 235.87719727 C90.87111295 233.96192825 85.62206666 233.72135063 79.35546875 233.6875 C78.39705078 233.666875 77.43863281 233.64625 76.45117188 233.625 C75.07155273 233.61726563 75.07155273 233.61726563 73.6640625 233.609375 C72.40613892 233.59535645 72.40613892 233.59535645 71.12280273 233.58105469 C68.41835226 234.01827069 67.55019559 234.77394847 65.91796875 236.9375 C65.36700942 240.12890596 65.63188936 241.49400127 67.39453125 244.2265625 C72.41757685 249.68798298 77.70980685 254.27520005 83.59741211 258.74487305 C92.61326307 265.65372563 101.39831217 273.38706066 105.48046875 284.1875 C105.89425781 285.26515625 106.30804688 286.3428125 106.734375 287.453125 C113.09611127 306.18140471 110.26809227 325.15731218 102.4140625 343.04296875 C99.69457611 348.30442937 96.33809281 353.11308659 92.91796875 357.9375 C92.25796875 358.9275 91.59796875 359.9175 90.91796875 360.9375 C90.25796875 360.9375 89.59796875 360.9375 88.91796875 360.9375 C88.69348092 357.00896292 89.45709946 354.54670649 90.91796875 350.9375 C94.83426071 329.14613258 91.26185407 307.85274378 78.6171875 289.515625 C72.48293315 281.08266976 65.06682142 274.12649569 57.4140625 267.09375 C24.49270097 236.82652489 24.49270097 236.82652489 21.91796875 218.9375 C21.8514402 216.66754581 21.83253124 214.39581305 21.85546875 212.125 C21.86449219 210.96355469 21.87351563 209.80210937 21.8828125 208.60546875 C21.90021484 207.28482422 21.90021484 207.28482422 21.91796875 205.9375 C21.25796875 205.9375 20.59796875 205.9375 19.91796875 205.9375 C19.64984375 206.7625 19.38171875 207.5875 19.10546875 208.4375 C17.91796875 211.9375 17.91796875 211.9375 16.36328125 215.5703125 C14.6283665 220.19320937 14.49650843 224.41717401 14.60546875 229.3125 C14.61747314 230.15176025 14.62947754 230.99102051 14.6418457 231.85571289 C14.86512864 241.64500688 16.80935974 249.30448626 20.796875 258.2734375 C21.73757902 260.50883869 22.41919154 262.57251143 22.91796875 264.9375 C14.23150117 263.94968871 6.95718822 255.64006397 1.60546875 249.15625 C-10.11594122 233.74476652 -15.31930158 218.43086428 -13.08203125 198.9375 C-10.12164805 184.38301034 -3.65809554 170.9804839 4.91796875 158.9375 C-14.1156351 166.68770995 -27.52029157 177.83823456 -36.08203125 196.9375 C-36.44049915 198.26429676 -36.7807623 199.59655783 -37.08203125 200.9375 C-38.07203125 200.9375 -39.06203125 200.9375 -40.08203125 200.9375 C-44.72448557 187.01013705 -40.60640802 169.51220508 -34.39453125 156.8125 C-29.50438465 147.30843552 -23.34448701 139.17039394 -16.20703125 131.25 C-15.73031982 130.71987305 -15.2536084 130.18974609 -14.76245117 129.64355469 C-13.57909322 128.3665222 -12.33506813 127.1462376 -11.08203125 125.9375 C-10.42203125 125.9375 -9.76203125 125.9375 -9.08203125 125.9375 C-9.08203125 125.2775 -9.08203125 124.6175 -9.08203125 123.9375 C-27.20472151 130.97483333 -42.11383425 141.06338514 -51.08203125 158.9375 C-55.6490103 169.70622901 -57.30460741 177.85186582 -57.39453125 189.5 C-57.42353516 190.72525391 -57.45253906 191.95050781 -57.48242188 193.21289062 C-57.5382731 201.27694895 -56.43698968 207.60141828 -53.08203125 214.9375 C-52.62441406 215.9584375 -52.16679687 216.979375 -51.6953125 218.03125 C-39.01724917 241.48376355 -16.40878966 256.73237573 5.72827148 270.40429688 C47.87838829 296.44606824 47.87838829 296.44606824 52.96875 314.70703125 C53.28899072 316.11632165 53.60528947 317.52651268 53.91796875 318.9375 C54.27048539 320.36564015 54.62726281 321.79273529 54.98828125 323.21875 C55.96484375 327.125 56.94140625 331.03125 57.91796875 334.9375 C58.57796875 334.9375 59.23796875 334.9375 59.91796875 334.9375 C60.17191406 333.82632812 60.42585937 332.71515625 60.6875 331.5703125 C62.52307219 323.61169369 64.39603336 315.71346745 66.91796875 307.9375 C67.90796875 308.2675 68.89796875 308.5975 69.91796875 308.9375 C71.015625 311.1953125 71.015625 311.1953125 71.98046875 314.0625 C72.30144531 314.99320312 72.62242187 315.92390625 72.953125 316.8828125 C73.27152344 317.89085937 73.58992187 318.89890625 73.91796875 319.9375 C74.28148437 321.04351562 74.645 322.14953125 75.01953125 323.2890625 C76.02310951 327.36446291 76.26367286 331.01184564 76.23046875 335.1875 C76.2248291 335.93475342 76.21918945 336.68200684 76.21337891 337.4519043 C75.7113235 360.48928836 60.13344899 377.54227427 44.45703125 392.7578125 C30.86148673 405.56338433 30.86148673 405.56338433 22.91796875 406.9375 C22.91796875 407.5975 22.91796875 408.2575 22.91796875 408.9375 C20.60796875 409.2675 18.29796875 409.5975 15.91796875 409.9375 C17.26698967 406.31461393 18.93064578 402.93958791 20.73632812 399.52392578 C27.35241333 386.85124871 30.24239735 376.13016663 30.35546875 361.8125 C30.36578125 360.72791504 30.37609375 359.64333008 30.38671875 358.52587891 C30.26977694 347.81108596 28.28280394 338.08004151 22.79296875 328.8125 C22.20636475 327.79748413 22.20636475 327.79748413 21.60791016 326.76196289 C18.06126808 320.81662226 13.82953869 315.81295545 8.91796875 310.9375 C8.29921875 310.28265625 7.68046875 309.6278125 7.04296875 308.953125 C3.31137637 305.05494367 -0.6069516 301.95132915 -5.08203125 298.9375 C-3.27759363 302.64755866 -1.20737081 306.17103092 0.89453125 309.71875 C1.91796875 311.9375 1.91796875 311.9375 1.91796875 315.9375 C2.57796875 315.9375 3.23796875 315.9375 3.91796875 315.9375 C4.73553113 317.99799855 5.54681609 320.06098853 6.35546875 322.125 C6.80792969 323.27355469 7.26039063 324.42210937 7.7265625 325.60546875 C11.82359965 337.06373985 12.22771896 355.51584259 7.91796875 366.9375 C0.74691697 382.08831116 0.74691697 382.08831116 -5.08203125 386.9375 C-5.74203125 386.9375 -6.40203125 386.9375 -7.08203125 386.9375 C-7.14148926 386.289021 -7.20094727 385.64054199 -7.26220703 384.97241211 C-8.61842841 370.86696044 -10.06256171 357.79751652 -17.58203125 345.48046875 C-19.08203125 342.9375 -19.08203125 342.9375 -20.484375 339.5703125 C-22.20275856 335.66298559 -24.24935406 332.32679665 -26.64453125 328.8125 C-27.08216797 328.16506836 -27.51980469 327.51763672 -27.97070312 326.85058594 C-34.56875576 317.18948884 -41.68778547 308.20408021 -49.64453125 299.61328125 C-53.65506671 295.21069024 -57.38115438 290.6009951 -61.08203125 285.9375 C-61.84644531 285.00292969 -62.61085938 284.06835938 -63.3984375 283.10546875 C-73.8993859 269.83269641 -80.14751648 254.88766442 -81.08203125 237.9375 C-88.04016577 252.15629662 -87.45329741 274.05092267 -82.4375 288.80859375 C-80.40063865 293.51039762 -78.0443148 297.9604569 -75.47265625 302.390625 C-74.08203125 304.9375 -74.08203125 304.9375 -74.08203125 306.9375 C-73.42203125 306.9375 -72.76203125 306.9375 -72.08203125 306.9375 C-70.89311456 308.60198337 -69.78337144 310.32309792 -68.70703125 312.0625 C-64.9375566 317.90761539 -60.70185625 323.06731522 -56.03173828 328.21533203 C-53.4682764 331.0891645 -51.80822947 333.15289983 -51.08203125 336.9375 C-58.10720448 336.5472126 -62.94284684 334.23866658 -69.08203125 330.9375 C-70.39421828 330.353463 -71.70669933 329.77008594 -73.01953125 329.1875 C-87.6289218 321.75158265 -101.29894129 306.66649535 -108.08203125 291.9375 C-108.60152344 290.97328125 -109.12101562 290.0090625 -109.65625 289.015625 C-113.33767138 282.13413031 -115.53326021 275.5685308 -117.08203125 267.9375 C-117.28699219 267.1021875 -117.49195312 266.266875 -117.703125 265.40625 C-124.44201154 235.29039842 -113.2034796 203.0339073 -97.26953125 177.6875 C-95.30755515 174.6862824 -93.25834431 171.78696695 -91.08203125 168.9375 C-92.52240794 169.87057421 -93.9592211 170.80915077 -95.39453125 171.75 C-96.19503906 172.27207031 -96.99554688 172.79414063 -97.8203125 173.33203125 C-100.08180952 174.83731595 -100.08180952 174.83731595 -101.75 176.63671875 C-103.08203125 177.9375 -103.08203125 177.9375 -105.08203125 177.9375 C-105.08203125 178.5975 -105.08203125 179.2575 -105.08203125 179.9375 C-106.515625 181.27734375 -106.515625 181.27734375 -108.51953125 182.875 C-125.36678007 197.31549899 -135.81148375 219.69162839 -141.08203125 240.9375 C-141.74203125 240.9375 -142.40203125 240.9375 -143.08203125 240.9375 C-143.81348753 201.11627008 -135.55948996 167.11972621 -107.375 137.2890625 C-106.61832031 136.51304687 -105.86164063 135.73703125 -105.08203125 134.9375 C-104.25316406 134.05835938 -103.42429688 133.17921875 -102.5703125 132.2734375 C-94.83808774 124.25901476 -86.35647599 117.12046316 -77.08203125 110.9375 C-82.26128117 111.51371668 -86.89095851 112.70106516 -91.76953125 114.5625 C-92.46723633 114.82828857 -93.16494141 115.09407715 -93.88378906 115.36791992 C-105.16428492 119.80803264 -114.55018947 126.54764514 -124.08203125 133.9375 C-125.6630193 135.12812063 -127.24602137 136.31607713 -128.83203125 137.5 C-129.46625 137.97566406 -130.10046875 138.45132813 -130.75390625 138.94140625 C-131.1921875 139.27011719 -131.63046875 139.59882813 -132.08203125 139.9375 C-132.41203125 139.2775 -132.74203125 138.6175 -133.08203125 137.9375 C-131.85034276 135.37425639 -130.565145 132.95647208 -129.14453125 130.5 C-128.72921143 129.77570801 -128.3138916 129.05141602 -127.88598633 128.30517578 C-113.01324949 102.75639429 -88.99721892 77.74137487 -62.08203125 64.9375 C-61.32277344 64.53015625 -60.56351562 64.1228125 -59.78125 63.703125 C-56.22390339 61.80413924 -54.1913242 60.9375 -50.08203125 60.9375 C-49.87449219 61.906875 -49.66695313 62.87625 -49.453125 63.875 C-47.75716502 71.40123669 -45.68095809 78.58459245 -42.64453125 85.6875 C-42.23062134 86.68716797 -42.23062134 86.68716797 -41.80834961 87.70703125 C-39.91792542 91.95081841 -37.85951011 94.28717209 -34.08203125 96.9375 C-33.31890625 97.741875 -32.55578125 98.54625 -31.76953125 99.375 C-28.00348613 102.96588023 -23.72992169 105.61355478 -19.08203125 107.9375 C-19.55253906 107.25945312 -20.02304688 106.58140625 -20.5078125 105.8828125 C-24.64029451 99.70547915 -27.5164601 94.20307318 -29.08203125 86.9375 C-29.38753906 85.58591797 -29.38753906 85.58591797 -29.69921875 84.20703125 C-33.62422639 64.28627328 -30.40246572 45.18943346 -22.08203125 26.9375 C-21.61796875 25.87660156 -21.15390625 24.81570312 -20.67578125 23.72265625 C-17.4662113 16.79533445 -8.9741006 -0.26939139 0 0 Z " fill="#FEFDFC" transform="translate(210.08203125,20.0625)"/>
<path d="M0 0 C11.13156667 4.73843717 17.44083513 18.38263377 21.83007812 29.00976562 C24.58785159 36.10809481 26.26857445 42.354021 26 50 C24.89140625 49.4225 23.7828125 48.845 22.640625 48.25 C21.17730017 47.49957701 19.71374645 46.74960026 18.25 46 C17.52039063 45.6184375 16.79078125 45.236875 16.0390625 44.84375 C15.33007812 44.4828125 14.62109375 44.121875 13.890625 43.75 C13.24125977 43.41484375 12.59189453 43.0796875 11.92285156 42.734375 C9.72026149 41.76214375 9.72026149 41.76214375 6 42 C4.74655832 45.88065543 4.81622457 49.77878874 4.8125 53.8125 C4.79413086 54.84213867 4.79413086 54.84213867 4.77539062 55.89257812 C4.76203554 60.59802072 5.61705062 64.46851763 7 69 C7 70.32 7 71.64 7 73 C1.62425254 70.6756746 -1.45725132 66.52867132 -5 62 C-5.68449219 61.16339844 -6.36898437 60.32679687 -7.07421875 59.46484375 C-12.33413306 51.70833725 -12.6707643 44.50260305 -12.75 35.3125 C-12.76546875 34.16023926 -12.7809375 33.00797852 -12.796875 31.82080078 C-12.65262165 23.98491373 -10.91570406 18.71397886 -7 12 C-6.45832655 10.73790864 -5.93527476 9.46754102 -5.4375 8.1875 C-3.9907564 4.97950333 -2.31429715 2.63351055 0 0 Z " fill="#F4512D" transform="translate(210,44)"/>
<path d="M0 0 C4.43744296 -0.05878606 8.87478373 -0.09385813 13.3125 -0.125 C14.55580078 -0.14175781 15.79910156 -0.15851563 17.08007812 -0.17578125 C36.4757239 -0.27759566 36.4757239 -0.27759566 40.65136719 3.48999023 C41.09641602 3.98829346 41.54146484 4.48659668 42 5 C43.16208984 5.66322266 43.16208984 5.66322266 44.34765625 6.33984375 C47.53846882 8.33703866 49.9352473 10.79164639 52.4375 13.5625 C52.91541992 14.08900146 53.39333984 14.61550293 53.88574219 15.15795898 C57.855865 19.63816038 61.74783741 24.40146376 64 30 C63.505 31.485 63.505 31.485 63 33 C61.906875 32.401875 60.81375 31.80375 59.6875 31.1875 C53.93274478 28.58174684 47.94880988 27.86915841 41.7409668 27.03979492 C35.62664998 26.20644627 30.91186318 25.36996993 26.5 20.75 C25.9534375 20.18796875 25.406875 19.6259375 24.84375 19.046875 C23 17 23 17 20.79296875 14.03515625 C17.7590897 10.36716086 14.07760599 8.64443098 9.8125 6.6875 C9.08869141 6.34138672 8.36488281 5.99527344 7.61914062 5.63867188 C5.75160733 4.74746762 3.87631671 3.87256016 2 3 C1.34 2.67 0.68 2.34 0 2 C0 1.34 0 0.68 0 0 Z " fill="#EC4D31" transform="translate(262,140)"/>
<path d="M0 0 C7.88517789 3.37183554 12.55976724 11.32768242 16.1875 18.73828125 C17 21 17 21 17 25 C17.99 25.33 18.98 25.66 20 26 C21.60546875 28.8359375 21.60546875 28.8359375 23.1875 32.375 C23.71730469 33.53773437 24.24710937 34.70046875 24.79296875 35.8984375 C26 39 26 39 26 42 C24.68 42 23.36 42 22 42 C22 41.34 22 40.68 22 40 C19.69 39.34 17.38 38.68 15 38 C15 37.34 15 36.68 15 36 C13.783125 35.608125 12.56625 35.21625 11.3125 34.8125 C7.19721104 33.43636834 3.124761 31.96310469 -0.9375 30.4375 C-2.03964844 30.02371094 -3.14179688 29.60992187 -4.27734375 29.18359375 C-7 28 -7 28 -9 26 C-8.69603641 20.2246917 -7.30304364 15.47991123 -5.0625 10.1875 C-4.66514648 9.20620117 -4.66514648 9.20620117 -4.25976562 8.20507812 C-3.04096983 5.24428139 -1.78224978 2.67337468 0 0 Z " fill="#FAF5F4" transform="translate(267,45)"/>
<path d="M0 0 C2 1 2 1 2.78125 3.0390625 C3.0184375 3.89242188 3.255625 4.74578125 3.5 5.625 C3.7371875 6.46289062 3.974375 7.30078125 4.21875 8.1640625 C4.4765625 9.09992188 4.734375 10.03578125 5 11 C5.35449219 12.09570312 5.70898438 13.19140625 6.07421875 14.3203125 C10.16304218 30.5720917 5.1455062 45.94243285 -3 60 C-5.43376835 63.56672948 -8.12515398 66.78174234 -11 70 C-11.44504883 70.50917969 -11.89009766 71.01835937 -12.34863281 71.54296875 C-23.38155454 84.13919939 -36.54996032 97.10678939 -53 102 C-53 101.34 -53 100.68 -53 100 C-53.66 99.67 -54.32 99.34 -55 99 C-51.535 98.505 -51.535 98.505 -48 98 C-48 97.34 -48 96.68 -48 96 C-46.1640625 94.7734375 -46.1640625 94.7734375 -43.625 93.375 C-22.85898684 81.1938191 -4.00456824 61.39199998 3 38 C4.15210105 33.56884211 4.18352104 29.17692666 4.1875 24.625 C4.20586914 23.53058594 4.20586914 23.53058594 4.22460938 22.4140625 C4.23750823 17.59848835 3.49629553 13.62139984 2 9 C1.60825846 7.35807097 1.23042167 5.71267205 0.875 4.0625 C0.62363281 2.90427734 0.62363281 2.90427734 0.3671875 1.72265625 C0.24601562 1.15417969 0.12484375 0.58570313 0 0 Z " fill="#958C8A" transform="translate(281,331)"/>
<path d="M0 0 C0 0.66 0 1.32 0 2 C-0.53890869 2.27150879 -1.07781738 2.54301758 -1.63305664 2.82275391 C-4.11472377 4.08021706 -6.5885301 5.35246426 -9.0625 6.625 C-10.33383789 7.26501953 -10.33383789 7.26501953 -11.63085938 7.91796875 C-27.1425465 15.94332039 -36.30924996 29.20537965 -43 45 C-43.29132813 45.6595166 -43.58265625 46.3190332 -43.8828125 46.99853516 C-46.60264395 53.93121874 -46.37354509 60.76634558 -46.25 68.125 C-46.24484375 69.36121094 -46.2396875 70.59742188 -46.234375 71.87109375 C-46.18455891 77.66844081 -46.05005875 83.2924226 -45 89 C-50.66732085 83.33267915 -49.36719942 73.71134575 -49.375 66.3125 C-49.41173828 64.50749023 -49.41173828 64.50749023 -49.44921875 62.66601562 C-49.47607385 54.38121865 -48.1296189 47.65921478 -45 40 C-44.54238281 38.86304688 -44.08476562 37.72609375 -43.61328125 36.5546875 C-40.55244832 30.24918783 -37.01692794 25.30176212 -32.1484375 20.25390625 C-29.94407993 18.01727842 -29.94407993 18.01727842 -28.00390625 15.4296875 C-22.06876086 8.23346833 -9.45578763 0 0 0 Z " fill="#8F8785" transform="translate(201,144)"/>
<path d="M0 0 C-1.56184336 3.91815039 -4.06095886 6.10639392 -7.1875 8.875 C-7.68362793 9.3191626 -8.17975586 9.7633252 -8.69091797 10.22094727 C-11.28202169 12.5308492 -13.92442825 14.75797974 -16.625 16.9375 C-32.33356641 30.3966297 -43.74803105 53.89173019 -48 74 C-48.99 73.67 -49.98 73.34 -51 73 C-49.0112933 62.9996463 -45.37544159 54.14189867 -41 45 C-40.68369629 44.33468262 -40.36739258 43.66936523 -40.04150391 42.98388672 C-35.75132645 34.09568701 -30.94337194 27.1054255 -24 20 C-22.15078845 17.84675947 -20.32439366 15.67686872 -18.5078125 13.49609375 C-17 12 -17 12 -14 11 C-14 10.34 -14 9.68 -14 9 C-12.07412421 7.36860063 -10.15673283 5.86276775 -8.125 4.375 C-7.56941406 3.95476562 -7.01382813 3.53453125 -6.44140625 3.1015625 C-2.26235288 0 -2.26235288 0 0 0 Z " fill="#928B89" transform="translate(119,189)"/>
<path d="M0 0 C5.57154621 4.5912155 7.45655504 13.46822171 8.28808594 20.40234375 C9.73614965 41.11701792 3.8123734 59.98122505 -8 77 C-8.52335937 77.763125 -9.04671875 78.52625 -9.5859375 79.3125 C-10.05257813 79.869375 -10.51921875 80.42625 -11 81 C-11.66 81 -12.32 81 -13 81 C-12.47912798 76.39754066 -10.41187636 73.37693741 -7.8125 69.6875 C-2.79326906 62.22418272 0.30796655 54.55062829 3 46 C3.26683594 45.15308594 3.53367187 44.30617188 3.80859375 43.43359375 C7.11534815 30.32060217 5.72827626 16.47581328 1 4 C0.64436446 2.67244124 0.30116259 1.34096606 0 0 Z " fill="#998C89" transform="translate(314,302)"/>
<path d="M0 0 C3.20094566 3.65139857 5.01655177 7.01351476 6.6875 11.5625 C7.10386719 12.67753906 7.52023438 13.79257812 7.94921875 14.94140625 C10.13557411 21.30540716 10.18346378 26.98334615 10.1875 33.6875 C10.19974609 34.73873047 10.21199219 35.78996094 10.22460938 36.87304688 C10.2525282 51.82823286 5.89881178 63.05455068 -3 75 C-3.66 75.99 -4.32 76.98 -5 78 C-5.66 78 -6.32 78 -7 78 C-7 77.34 -7 76.68 -7 76 C-7.66 75.67 -8.32 75.34 -9 75 C-8.27167969 74.49597656 -7.54335937 73.99195313 -6.79296875 73.47265625 C0.09642894 67.3733713 5.80335863 56.44756609 6.859375 47.3046875 C6.92898437 45.66886719 6.92898437 45.66886719 7 44 C7.03416016 43.19723633 7.06832031 42.39447266 7.10351562 41.56738281 C7.87131892 24.74745836 7.87131892 24.74745836 2.8984375 8.9140625 C2 7 2 7 2 4 C1.34 4 0.68 4 0 4 C0 2.68 0 1.36 0 0 Z " fill="#97837F" transform="translate(212,332)"/>
<path d="M0 0 C-0.20703125 1.875 -0.20703125 1.875 -1 4 C-3.07421875 5.125 -3.07421875 5.125 -5.6875 6 C-21.63479866 11.42062959 -31.65909547 25.33286884 -38.9375 39.6875 C-39.63130852 41.12196584 -40.32136583 42.55829331 -41 44 C-41.66 44 -42.32 44 -43 44 C-40.76436503 32.15113465 -34.38990549 23.41796537 -26 15 C-25.31164062 14.2884375 -24.62328125 13.576875 -23.9140625 12.84375 C-18.05521914 7.18092742 -8.41940962 0 0 0 Z " fill="#928E8E" transform="translate(215,179)"/>
<path d="M0 0 C-2.44791394 3.67187091 -3.45884128 3.62786906 -7.625 4.6875 C-23.9309661 9.43138173 -36.94924304 18.68516752 -49.90625 29.43359375 C-52 31 -52 31 -55 32 C-55.33 31.01 -55.66 30.02 -56 29 C-42.76354728 18.57691987 -29.96250042 8.89384631 -14 3 C-13.15050781 2.6803125 -12.30101562 2.360625 -11.42578125 2.03125 C-7.51931537 0.63654483 -4.20981 -0.40740097 0 0 Z " fill="#8E817E" transform="translate(134,130)"/>
<path d="M0 0 C0.66 0 1.32 0 2 0 C2.9375 2.625 2.9375 2.625 3 6 C1.05980557 8.55354622 -1.35943925 10.21624359 -4 12 C-4.54527344 12.41765625 -5.09054687 12.8353125 -5.65234375 13.265625 C-13.77226635 18.4947815 -25.8769209 16.82308099 -34.94165039 15.01708984 C-43.46507524 13.07572996 -51.73361608 10.18852623 -60 7.375 C-61.16523193 6.97869385 -62.33046387 6.5823877 -63.53100586 6.17407227 C-64.61389893 5.79436279 -65.69679199 5.41465332 -66.8125 5.0234375 C-67.78832031 4.68231934 -68.76414062 4.34120117 -69.76953125 3.98974609 C-72 3 -72 3 -73 1 C-69.15637524 1.68099726 -65.58000569 2.73789763 -61.88671875 3.99609375 C-60.1377832 4.58680664 -60.1377832 4.58680664 -58.35351562 5.18945312 C-55.92119856 6.01750353 -53.48890665 6.84562781 -51.05664062 7.67382812 C-38.14308981 12.0352643 -23.91248261 16.43416064 -10.42578125 11.76171875 C-6.57776972 9.69129332 -2.73292453 7.47747128 0 4 C0 2.68 0 1.36 0 0 Z " fill="#9B8A87" transform="translate(398,229)"/>
<path d="M0 0 C-1.80478322 5.3954514 -4.38610637 8.13413312 -9.0078125 11.3828125 C-19.8663846 16.76824325 -36.315109 13.78308292 -47.45654297 10.67480469 C-50.16267774 9.89296391 -50.16267774 9.89296391 -53.6875 9.5625 C-58.16316297 8.80248176 -61.94016559 6.97928435 -66 5 C-62.64887919 3.88295973 -62.09845713 4.07907656 -58.921875 5.21484375 C-49.14088412 8.49118745 -40.11410656 10.60555673 -29.75 10.625 C-28.81124023 10.63523193 -27.87248047 10.64546387 -26.90527344 10.65600586 C-18.66451408 10.49186783 -11.95501048 8.01285686 -5.5625 2.75 C-2.19306931 0 -2.19306931 0 0 0 Z " fill="#9E8D89" transform="translate(377,253)"/>
<path d="M0 0 C0.99 0.33 1.98 0.66 3 1 C2.55269531 1.63164063 2.10539063 2.26328125 1.64453125 2.9140625 C-9.47166163 19.36318373 -11.24373147 35.67055099 -8 55 C-12.78959778 48.75269854 -12.28527276 43.75732782 -12.375 36 C-12.43107422 34.20755859 -12.43107422 34.20755859 -12.48828125 32.37890625 C-12.56868107 24.22279125 -11.15008922 18.95844498 -7 12 C-6.45691849 10.7385139 -5.93375144 9.46813236 -5.4375 8.1875 C-3.9907564 4.97950333 -2.31429715 2.63351055 0 0 Z " fill="#A79793" transform="translate(210,44)"/>
<path d="M0 0 C0.33 0 0.66 0 1 0 C1 3.96 1 7.92 1 12 C0.01 12.495 0.01 12.495 -1 13 C-2.25257648 20.49182534 -2.11701206 27.98532383 -2.0625 35.5625 C-2.05798828 36.76197266 -2.05347656 37.96144531 -2.04882812 39.19726562 C-2.03713769 42.13156359 -2.02075138 45.06575449 -2 48 C-5.44673961 44.55326039 -5.12709128 40.25481291 -5.1328125 35.578125 C-5.13410156 34.55203125 -5.13539062 33.5259375 -5.13671875 32.46875 C-5.13285156 31.4065625 -5.12898438 30.344375 -5.125 29.25 C-5.12886719 28.20328125 -5.13273437 27.1565625 -5.13671875 26.078125 C-5.12443457 16.25077995 -4.87210554 8.64405822 0 0 Z " fill="#9F7971" transform="translate(129,257)"/>
<path d="M0 0 C0.66 0 1.32 0 2 0 C1.59364748 3.86034898 0.63706127 6.75834988 -1.0625 10.1875 C-5.41791365 20.62465489 -3.79435019 34.31321035 -1 45 C-0.65549886 46.99810662 -0.31622777 48.99722415 0 51 C-2.14024277 48.85975723 -2.63364788 47.63796118 -3.5625 44.8125 C-3.81128906 44.07644531 -4.06007812 43.34039062 -4.31640625 42.58203125 C-7.8708587 29.15635656 -7.77879883 14.24628903 -1 2 C-0.67 1.34 -0.34 0.68 0 0 Z " fill="#93827F" transform="translate(230,226)"/>
<path d="M0 0 C2 1 2 1 2.78125 3.0390625 C3.0184375 3.89242188 3.255625 4.74578125 3.5 5.625 C3.7371875 6.46289062 3.974375 7.30078125 4.21875 8.1640625 C4.4765625 9.09992188 4.734375 10.03578125 5 11 C5.35449219 12.09570312 5.70898438 13.19140625 6.07421875 14.3203125 C7.10415954 18.41400121 7.34399694 22.05231707 7.3125 26.25 C7.30976074 26.99217773 7.30702148 27.73435547 7.30419922 28.49902344 C7.15131505 36.60012729 5.0410017 43.54293496 2 51 C1.67 51 1.34 51 1 51 C0.70672286 46.60084289 1.1348105 43.32311796 2.5 39.125 C3.96927211 34.09744329 4.30348914 29.44814159 4.3125 24.25 C4.31765625 23.54117676 4.3228125 22.83235352 4.328125 22.10205078 C4.26690678 17.43088185 3.42984313 13.48088386 2 9 C1.60825846 7.35807097 1.23042167 5.71267205 0.875 4.0625 C0.70742188 3.29035156 0.53984375 2.51820313 0.3671875 1.72265625 C0.24601562 1.15417969 0.12484375 0.58570313 0 0 Z " fill="#987B76" transform="translate(281,331)"/>
<path d="M0 0 C-2.48613818 3.72920726 -3.82292727 3.78215445 -8.0625 4.9375 C-12.94848148 6.34505096 -17.47018255 7.97268141 -22.0703125 10.12109375 C-25.90682932 11.86849514 -29.89955014 13.05374234 -34 14 C-27.39228501 5.89053161 -10.29713957 -0.68647597 0 0 Z " fill="#928987" transform="translate(134,130)"/>
<path d="M0 0 C1.40995239 0.01546875 1.40995239 0.01546875 2.84838867 0.03125 C9.52902246 0.18837342 15.67456583 0.97339475 21.9375 3.4375 C21.9375 3.7675 21.9375 4.0975 21.9375 4.4375 C20.67679687 4.27765625 19.41609375 4.1178125 18.1171875 3.953125 C12.76119341 3.36151108 7.44765221 3.21792459 2.0625 3.1875 C1.12664062 3.166875 0.19078125 3.14625 -0.7734375 3.125 C-2.11921875 3.11726562 -2.11921875 3.11726562 -3.4921875 3.109375 C-4.29897949 3.1000293 -5.10577148 3.09068359 -5.93701172 3.08105469 C-8.58562776 3.52522875 -9.41028776 4.36519135 -11.0625 6.4375 C-12.23824711 8.53739652 -12.23824711 8.53739652 -13.0625 10.4375 C-14.0625 9.4375 -14.0625 9.4375 -14.375 7.125 C-14.0625 4.4375 -14.0625 4.4375 -12.671875 2.296875 C-8.651684 -0.567812 -4.81466865 -0.1142051 0 0 Z " fill="#979595" transform="translate(289.0625,252.5625)"/>
<path d="M0 0 C4.43744296 -0.05878606 8.87478373 -0.09385813 13.3125 -0.125 C14.55580078 -0.14175781 15.79910156 -0.15851563 17.08007812 -0.17578125 C24.43512804 -0.21439044 31.91589208 -0.23983464 39 2 C39.495 2.99 39.495 2.99 40 4 C39.44634766 3.9278125 38.89269531 3.855625 38.32226562 3.78125 C30.7020275 2.89417297 23.16302928 2.92050799 15.5 3 C12.98962547 3.02540865 10.47920197 3.04647584 7.96875 3.0625 C6.32036133 3.07990234 6.32036133 3.07990234 4.63867188 3.09765625 C2 3 2 3 0 2 C0 1.34 0 0.68 0 0 Z " fill="#957975" transform="translate(262,140)"/>
<path d="M0 0 C1.18342185 3.55026555 0.50810441 4.60045346 -1.09692383 7.83740234 C-1.41556396 8.44793457 -1.7342041 9.0584668 -2.0625 9.6875 C-2.38178467 10.31092285 -2.70106934 10.9343457 -3.0300293 11.57666016 C-5.52317654 16.33321702 -8.16799441 21.1798582 -12 25 C-12.66 25 -13.32 25 -14 25 C-13.48405308 20.22070221 -11.20783696 16.87485977 -8.5625 13 C-5.93098553 9.10885065 -3.73090982 5.37960439 -2 1 C-1.34 0.67 -0.68 0.34 0 0 Z " fill="#8D817E" transform="translate(315,358)"/>
<path d="M0 0 C-0.20703125 1.875 -0.20703125 1.875 -1 4 C-3.07421875 5.125 -3.07421875 5.125 -5.6875 6 C-8.92269029 7.16724195 -11.29497594 8.19665062 -14.1875 10.125 C-17.4798939 12.31992927 -20.17654165 13.08237 -24 14 C-18.38992936 7.86398524 -8.63796761 0 0 0 Z " fill="#979190" transform="translate(215,179)"/>
<path d="M0 0 C0 0.66 0 1.32 0 2 C-1.41152344 2.07347656 -1.41152344 2.07347656 -2.8515625 2.1484375 C-4.71941406 2.26058594 -4.71941406 2.26058594 -6.625 2.375 C-7.85476563 2.44460937 -9.08453125 2.51421875 -10.3515625 2.5859375 C-13.83653855 2.9814487 -16.73049601 3.76261849 -20 5 C-20 7.64 -20 10.28 -20 13 C-22.24497221 10.75502779 -22.37003419 10.03972651 -22.75 7 C-22.84796875 6.29875 -22.9459375 5.5975 -23.046875 4.875 C-23 3 -23 3 -21 1 C-17.00197669 -0.07666696 -12.93127114 -0.3211918 -8.8125 -0.625 C-7.58144531 -0.72039062 -6.35039062 -0.81578125 -5.08203125 -0.9140625 C-2 -1 -2 -1 0 0 Z " fill="#9B9492" transform="translate(411,207)"/>
<path d="M0 0 C0.66 0.33 1.32 0.66 2 1 C0.68 3.31 -0.64 5.62 -2 8 C-2.99 8 -3.98 8 -5 8 C-6.80725242 9.39152898 -6.80725242 9.39152898 -8.57421875 11.28125 C-9.57485352 12.29638672 -9.57485352 12.29638672 -10.59570312 13.33203125 C-11.28599609 14.04746094 -11.97628906 14.76289063 -12.6875 15.5 C-13.38939453 16.21542969 -14.09128906 16.93085938 -14.81445312 17.66796875 C-16.54986361 19.43879577 -18.2779073 21.21623456 -20 23 C-20.66 22.67 -21.32 22.34 -22 22 C-8.38735178 7.03853755 -8.38735178 7.03853755 -1 1 C-0.67 0.67 -0.34 0.34 0 0 Z " fill="#E85838" transform="translate(113,195)"/>
<path d="M0 0 C0.33 0 0.66 0 1 0 C1.51415662 5.78426197 0.11775019 9.9849834 -2.02734375 15.3515625 C-2.96300941 17.89927865 -3.54206097 20.32949242 -4 23 C-4.99 22.67 -5.98 22.34 -7 22 C-5.26751883 14.36133302 -3.13135691 7.18463616 0 0 Z " fill="#968D8B" transform="translate(75,240)"/>
<path d="M0 0 C0.66 0.66 1.32 1.32 2 2 C0.824375 1.855625 -0.35125 1.71125 -1.5625 1.5625 C-8.35552324 0.80046214 -15.17916837 0.42237034 -22 0 C-22 0.66 -22 1.32 -22 2 C-23.32 1.67 -24.64 1.34 -26 1 C-26 0.34 -26 -0.32 -26 -1 C-19.10183344 -4.44908328 -7.17901617 -2.11839821 0 0 Z " fill="#978885" transform="translate(323,228)"/>
<path d="M0 0 C0 3 0 3 -1.8359375 5.17651367 C-2.67382812 5.99869385 -3.51171875 6.82087402 -4.375 7.66796875 C-5.27734375 8.56064453 -6.1796875 9.45332031 -7.109375 10.37304688 C-8.0727573 11.31136157 -9.03630108 12.2495105 -10 13.1875 C-10.96422346 14.13667769 -11.92777392 15.08653956 -12.890625 16.03710938 C-15.25386746 18.36490319 -17.62381482 20.68543133 -20 23 C-20.66 22.67 -21.32 22.34 -22 22 C-8.38735178 7.03853755 -8.38735178 7.03853755 -1 1 C-0.67 0.67 -0.34 0.34 0 0 Z " fill="#FEE1DA" transform="translate(118,106)"/>
<path d="M0 0 C0.99 0.33 1.98 0.66 3 1 C2.50628906 1.75925781 2.01257813 2.51851562 1.50390625 3.30078125 C0.86324219 4.29464844 0.22257813 5.28851563 -0.4375 6.3125 C-1.07558594 7.29863281 -1.71367187 8.28476562 -2.37109375 9.30078125 C-4.10615606 11.95276993 -4.10615606 11.95276993 -5 15 C-5.99 15 -6.98 15 -8 15 C-6.31910452 8.85038239 -4.40439414 4.6424695 0 0 Z " fill="#948A88" transform="translate(210,44)"/>
<path d="M0 0 C3.42436208 2.9836935 3.57781494 5.5248384 4 10 C4.66 10 5.32 10 6 10 C6.33 13.3 6.66 16.6 7 20 C2.55238707 16.50807249 2.04625482 13.05212034 1.25 7.75 C1.12496094 7.00492188 0.99992187 6.25984375 0.87109375 5.4921875 C0.56636166 3.66379497 0.28121479 1.83215696 0 0 Z " fill="#B4908A" transform="translate(337,139)"/>
<path d="M0 0 C5.86747118 4.89514738 7.33553805 14.69091852 8 22 C7.34 22 6.68 22 6 22 C4.99009308 19.08666921 3.99384048 16.16884681 3 13.25 C2.71382813 12.425 2.42765625 11.6 2.1328125 10.75 C1.86210937 9.95078125 1.59140625 9.1515625 1.3125 8.328125 C1.06113281 7.5949707 0.80976563 6.86181641 0.55078125 6.10644531 C0 4 0 4 0 0 Z " fill="#B29792" transform="translate(262,333)"/>
<path d="M0 0 C-1.3282086 4.28383762 -2.82522516 5.9783526 -6.625 8.3125 C-7.44226563 8.82425781 -8.25953125 9.33601563 -9.1015625 9.86328125 C-9.72804688 10.23839844 -10.35453125 10.61351562 -11 11 C-11.33 10.34 -11.66 9.68 -12 9 C-3.25 0 -3.25 0 0 0 Z " fill="#908684" transform="translate(377,253)"/>
<path d="M0 0 C-1.62255228 1.48185125 -3.24811888 2.96040256 -4.875 4.4375 C-5.77992188 5.26121094 -6.68484375 6.08492187 -7.6171875 6.93359375 C-10 9 -10 9 -12 10 C-11.51946314 5.67516825 -10.34218019 3.76923502 -7 1 C-3.5625 -1.1875 -3.5625 -1.1875 0 0 Z " fill="#8D827F" transform="translate(197,192)"/>
<path d="M0 0 C0.66 0.33 1.32 0.66 2 1 C-2.95 5.95 -7.9 10.9 -13 16 C-13.66 15.67 -14.32 15.34 -15 15 C-13.44221619 13.2456027 -11.87905295 11.49653989 -10.3125 9.75 C-9.44238281 8.77546875 -8.57226562 7.8009375 -7.67578125 6.796875 C-5.25206689 4.26347429 -2.7912151 2.11227089 0 0 Z " fill="#E25536" transform="translate(182,155)"/>
<path d="M0 0 C9.24 0 18.48 0 28 0 C28 0.33 28 0.66 28 1 C27.03175293 1.03758423 27.03175293 1.03758423 26.04394531 1.07592773 C23.11244106 1.19214433 20.18123783 1.31475442 17.25 1.4375 C16.23421875 1.47681641 15.2184375 1.51613281 14.171875 1.55664062 C13.1921875 1.59853516 12.2125 1.64042969 11.203125 1.68359375 C9.85202637 1.73858032 9.85202637 1.73858032 8.47363281 1.79467773 C6.02189864 1.92553936 6.02189864 1.92553936 3.79980469 2.58227539 C2 3 2 3 0 2 C0 1.34 0 0.68 0 0 Z " fill="#908C8C" transform="translate(262,140)"/>
<path d="M0 0 C0.66 0.33 1.32 0.66 2 1 C-0.32216997 5.51533049 -2.98560245 8.01055501 -7 11 C-7.66 11 -8.32 11 -9 11 C-9.33 10.01 -9.66 9.02 -10 8 C-6.7 5.36 -3.4 2.72 0 0 Z " fill="#9B857F" transform="translate(88,151)"/>
<path d="M0 0 C-2.57516622 2.63746863 -4.54331396 3.21887499 -8.109375 3.29296875 C-9.65652231 3.27313353 -11.20353396 3.2375101 -12.75 3.1875 C-13.54277344 3.17396484 -14.33554687 3.16042969 -15.15234375 3.14648438 C-17.10185564 3.11125223 -19.05101626 3.05744821 -21 3 C-21 2.67 -21 2.34 -21 2 C-18.62561751 1.6616656 -16.25065041 1.32920998 -13.875 1 C-12.87726563 0.85691406 -12.87726563 0.85691406 -11.859375 0.7109375 C-7.87371019 0.16388547 -4.02140062 -0.10022182 0 0 Z " fill="#8A817F" transform="translate(390,242)"/>
<path d="M0 0 C0.99 0.33 1.98 0.66 3 1 C1.75645114 2.29787866 0.5048736 3.58806759 -0.75 4.875 C-1.44609375 5.59429687 -2.1421875 6.31359375 -2.859375 7.0546875 C-4.85122217 8.86479679 -6.5427658 9.94848086 -9 11 C-9 8 -9 8 -7.28515625 6.2109375 C-6.18494141 5.30214844 -6.18494141 5.30214844 -5.0625 4.375 C-4.33160156 3.76398438 -3.60070312 3.15296875 -2.84765625 2.5234375 C-2.23792969 2.02070313 -1.62820313 1.51796875 -1 1 C-0.67 0.67 -0.34 0.34 0 0 Z " fill="#8E7671" transform="translate(263,405)"/>
<path d="M0 0 C0.66 0.33 1.32 0.66 2 1 C0.35 4.3 -1.3 7.6 -3 11 C-3.66 11 -4.32 11 -5 11 C-3.14285714 2.28571429 -3.14285714 2.28571429 0 0 Z " fill="#91827F" transform="translate(177,212)"/>
<path d="M0 0 C0.66 0.33 1.32 0.66 2 1 C1 4 1 4 -1.9375 5.6875 C-5 7 -5 7 -7 7 C-7 6.34 -7 5.68 -7 5 C-7.66 4.67 -8.32 4.34 -9 4 C-5.535 3.505 -5.535 3.505 -2 3 C-2 2.34 -2 1.68 -2 1 C-1.34 0.67 -0.68 0.34 0 0 Z " fill="#9E908D" transform="translate(235,426)"/>
<path d="M0 0 C0.33 0.99 0.66 1.98 1 3 C0.03126968 4.35622245 -0.97676564 5.68441297 -2 7 C-3.10505769 9.29931287 -4.04383199 11.63234588 -5 14 C-5.66 14 -6.32 14 -7 14 C-6.44010697 10.00987629 -5.24330232 7.4744948 -2.9375 4.1875 C-2.38964844 3.39730469 -1.84179688 2.60710937 -1.27734375 1.79296875 C-0.64505859 0.90544922 -0.64505859 0.90544922 0 0 Z " fill="#908886" transform="translate(308,369)"/>
<path d="M0 0 C0.66 0 1.32 0 2 0 C1.27991594 4.60853797 -0.31295939 8.67237409 -2 13 C-2.33 13 -2.66 13 -3 13 C-2.88557539 11.39504433 -2.75805306 9.79101881 -2.625 8.1875 C-2.55539063 7.29417969 -2.48578125 6.40085937 -2.4140625 5.48046875 C-2 3 -2 3 0 0 Z " fill="#8E7E7A" transform="translate(202,59)"/>
<path d="M0 0 C-0.59687434 3.34249629 -1.73603877 5.46436342 -4 8 C-4.66 8 -5.32 8 -6 8 C-6 7.34 -6 6.68 -6 6 C-6.66 5.67 -7.32 5.34 -8 5 C-2.25 0 -2.25 0 0 0 Z " fill="#9A807B" transform="translate(211,402)"/>
<path d="M0 0 C0.33 0 0.66 0 1 0 C1.125 2.875 1.125 2.875 1 6 C0.34 6.66 -0.32 7.32 -1 8 C-1.6425235 10.06874034 -1.6425235 10.06874034 -2 12 C-2.66 12 -3.32 12 -4 12 C-3.45660208 7.43545749 -2.20536179 4.0271824 0 0 Z " fill="#9A9695" transform="translate(129,257)"/>
<path d="M0 0 C0.598125 0.226875 1.19625 0.45375 1.8125 0.6875 C1.19375 1.265 0.575 1.8425 -0.0625 2.4375 C-2.00097053 4.48999821 -3.08764249 6.12116582 -4.1875 8.6875 C-5.1875 7.6875 -5.1875 7.6875 -5.4375 5.3125 C-5.1875 2.6875 -5.1875 2.6875 -3.9375 0.8125 C-2.1875 -0.3125 -2.1875 -0.3125 0 0 Z " fill="#918482" transform="translate(280.1875,254.3125)"/>
<path d="M0 0 C0.99 0.33 1.98 0.66 3 1 C2.45730469 1.47050781 1.91460937 1.94101562 1.35546875 2.42578125 C0.28232422 3.35970703 0.28232422 3.35970703 -0.8125 4.3125 C-1.52019531 4.92738281 -2.22789062 5.54226562 -2.95703125 6.17578125 C-4.70136739 7.73334335 -6.36778041 9.32658875 -8 11 C-8.66 10.67 -9.32 10.34 -10 10 C-6.9630085 6.18206783 -4.11954267 2.71022544 0 0 Z " fill="#FDD7CE" transform="translate(208,20)"/>
<path d="M0 0 C1.58357459 0.31127516 3.16684993 0.62407289 4.75 0.9375 C5.63171875 1.11152344 6.5134375 1.28554688 7.421875 1.46484375 C9.63235053 1.92368488 11.81512068 2.43336074 14 3 C14 3.66 14 4.32 14 5 C8.72676192 5.68041782 4.60611289 3.24786337 0 1 C0 0.67 0 0.34 0 0 Z " fill="#AC908A" transform="translate(311,257)"/>
<path d="M0 0 C0.33 0 0.66 0 1 0 C1.25 7.625 1.25 7.625 -1 11 C-1.66 11 -2.32 11 -3 11 C-2.01 7.37 -1.02 3.74 0 0 Z " fill="#938F8E" transform="translate(317,348)"/>
<path d="M0 0 C0.99 0 1.98 0 3 0 C1.60667426 3.36720387 0.0210714 4.9859524 -3 7 C-2.25 2.25 -2.25 2.25 0 0 Z " fill="#8D7E7B" transform="translate(95,209)"/>
<path d="M0 0 C2.96052484 3.36423277 3.92289822 6.69159287 5 11 C2.525 10.01 2.525 10.01 0 9 C0.66 8.67 1.32 8.34 2 8 C1.67 7.236875 1.34 6.47375 1 5.6875 C0 3 0 3 0 0 Z " fill="#AF837A" transform="translate(291,79)"/>
<path d="M0 0 C0.625 1.875 0.625 1.875 1 4 C-1 6 -1 6 -3.625 6.125 C-4.40875 6.08375 -5.1925 6.0425 -6 6 C-4 4 -2 2 0 0 Z " fill="#938C8A" transform="translate(253,413)"/>
<path d="M0 0 C0.6875 1.8125 0.6875 1.8125 1 4 C-0.84159673 6.48615558 -2.00470711 7.00156904 -5 8 C-3.62845496 5.04590299 -2.01136276 2.55991624 0 0 Z " fill="#93908F" transform="translate(167,166)"/>
<path d="M0 0 C0 0.66 0 1.32 0 2 C-3.465 3.485 -3.465 3.485 -7 5 C-7.33 4.01 -7.66 3.02 -8 2 C-5.09399739 0.74335022 -3.20395416 0 0 0 Z " fill="#97908F" transform="translate(201,144)"/>
<path d="M0 0 C3.65316671 1.24976756 4.78065836 1.67098753 7 5 C6.34 5 5.68 5 5 5 C4.67 5.66 4.34 6.32 4 7 C2.02 3.535 2.02 3.535 0 0 Z " fill="#C77E72" transform="translate(203,318)"/>
<path d="M0 0 C-2.31 1.65 -4.62 3.3 -7 5 C-7 4.01 -7 3.02 -7 2 C-7.66 1.67 -8.32 1.34 -9 1 C-3.375 -1.125 -3.375 -1.125 0 0 Z " fill="#E96647" transform="translate(130,134)"/>
<path d="M0 0 C0.66 1.32 1.32 2.64 2 4 C-5.75 3.25 -5.75 3.25 -8 1 C-5.36 1.33 -2.72 1.66 0 2 C0 1.34 0 0.68 0 0 Z " fill="#AB746B" transform="translate(159,355)"/>
<path d="M0 0 C-1.1875 1.5 -1.1875 1.5 -3 3 C-5.6875 3.1875 -5.6875 3.1875 -8 3 C-8 2.34 -8 1.68 -8 1 C-2.25 -1.125 -2.25 -1.125 0 0 Z " fill="#989898" transform="translate(366,262)"/>
</svg>
